<svg viewBox="0 0 512 512" xmlns="http://www.w3.org/2000/svg">
    <path d="m467 211h-422c-8.285156 0-15-6.714844-15-15v-61c0-8.285156 6.714844-15 15-15h422c8.285156 0 15 6.714844 15 15v61c0 8.285156-6.714844 15-15 15zm0 0" fill="#3f4a4a"/><path d="m467 392h-422c-8.285156 0-15-6.714844-15-15v-61c0-8.285156 6.714844-15 15-15h422c8.285156 0 15 6.714844 15 15v61c0 8.285156-6.714844 15-15 15zm0 0" fill="#3f4a4a"/><path d="m482 196v-61c0-8.285156-6.714844-15-15-15h-211v91h211c8.285156 0 15-6.714844 15-15zm0 0" fill="#323c3c"/><path d="m482 377v-61c0-8.285156-6.714844-15-15-15h-211v91h211c8.285156 0 15-6.714844 15-15zm0 0" fill="#323c3c"/><path d="m497 150h-482c-8.285156 0-15-6.714844-15-15v-120c0-8.285156 6.714844-15 15-15h482c8.285156 0 15 6.714844 15 15v120c0 8.285156-6.714844 15-15 15zm0 0" fill="#9bb9c3"/><path d="m497 0h-241v150h241c8.285156 0 15-6.714844 15-15v-120c0-8.285156-6.714844-15-15-15zm0 0" fill="#9bb9c3"/><path d="m497 512h-482c-8.285156 0-15-6.714844-15-15v-120c0-8.285156 6.714844-15 15-15h482c8.285156 0 15 6.714844 15 15v120c0 8.285156-6.714844 15-15 15zm0 0" fill="#9bb9c3"/><path d="m497 362h-241v150h241c8.285156 0 15-6.714844 15-15v-120c0-8.285156-6.714844-15-15-15zm0 0" fill="#9bb9c3"/><path d="m497 331h-482c-8.285156 0-15-6.714844-15-15v-120c0-8.285156 6.714844-15 15-15h482c8.285156 0 15 6.714844 15 15v120c0 8.285156-6.714844 15-15 15zm0 0" fill="#9bb9c3"/><path d="m497 181h-241v150h241c8.285156 0 15-6.714844 15-15v-120c0-8.285156-6.714844-15-15-15zm0 0" fill="#9bb9c3"/><path d="m105 90h-30c-8.285156 0-15-6.714844-15-15s6.714844-15 15-15h30c8.285156 0 15 6.714844 15 15s-6.714844 15-15 15zm0 0" fill="#ffd422"/><path d="m195 90h-30c-8.285156 0-15-6.714844-15-15s6.714844-15 15-15h30c8.285156 0 15 6.714844 15 15s-6.714844 15-15 15zm0 0" fill="#eebf00"/><path d="m285 90h-30c-8.285156 0-15-6.714844-15-15s6.714844-15 15-15h30c8.285156 0 15 6.714844 15 15s-6.714844 15-15 15zm0 0" fill="#ff7037"/><path d="m452 75c0 8.285156-6.714844 15-15 15s-15-6.714844-15-15 6.714844-15 15-15 15 6.714844 15 15zm0 0" fill="#eebf00"/><path d="m392 75c0 8.285156-6.714844 15-15 15s-15-6.714844-15-15 6.714844-15 15-15 15 6.714844 15 15zm0 0" fill="#eebf00"/><path d="m105 271h-30c-8.285156 0-15-6.714844-15-15s6.714844-15 15-15h30c8.285156 0 15 6.714844 15 15s-6.714844 15-15 15zm0 0" fill="#ff7037"/><path d="m195 271h-30c-8.285156 0-15-6.714844-15-15s6.714844-15 15-15h30c8.285156 0 15 6.714844 15 15s-6.714844 15-15 15zm0 0" fill="#ffd422"/><path d="m285 271h-30c-8.285156 0-15-6.714844-15-15s6.714844-15 15-15h30c8.285156 0 15 6.714844 15 15s-6.714844 15-15 15zm0 0" fill="#ff7037"/><path d="m452 256c0 8.285156-6.714844 15-15 15s-15-6.714844-15-15 6.714844-15 15-15 15 6.714844 15 15zm0 0" fill="#eebf00"/><path d="m392 256c0 8.285156-6.714844 15-15 15s-15-6.714844-15-15 6.714844-15 15-15 15 6.714844 15 15zm0 0" fill="#eebf00"/><path d="m105 452h-30c-8.285156 0-15-6.714844-15-15s6.714844-15 15-15h30c8.285156 0 15 6.714844 15 15s-6.714844 15-15 15zm0 0" fill="#ffd422"/><path d="m195 452h-30c-8.285156 0-15-6.714844-15-15s6.714844-15 15-15h30c8.285156 0 15 6.714844 15 15s-6.714844 15-15 15zm0 0" fill="#ff7037"/><path d="m285 452h-30c-8.285156 0-15-6.714844-15-15s6.714844-15 15-15h30c8.285156 0 15 6.714844 15 15s-6.714844 15-15 15zm0 0" fill="#ff7037"/><g fill="#ff4c04"><path d="m300 75c0-8.285156-6.714844-15-15-15h-29v30h29c8.285156 0 15-6.714844 15-15zm0 0"/><path d="m300 256c0-8.285156-6.714844-15-15-15h-29v30h29c8.285156 0 15-6.714844 15-15zm0 0"/><path d="m300 437c0-8.285156-6.714844-15-15-15h-29v30h29c8.285156 0 15-6.714844 15-15zm0 0"/></g><path d="m452 437c0 8.285156-6.714844 15-15 15s-15-6.714844-15-15 6.714844-15 15-15 15 6.714844 15 15zm0 0" fill="#eebf00"/><path d="m392 437c0 8.285156-6.714844 15-15 15s-15-6.714844-15-15 6.714844-15 15-15 15 6.714844 15 15zm0 0" fill="#eebf00"/></svg>